<svg width="355" height="354" viewBox="0 0 355 354" fill="none" xmlns="http://www.w3.org/2000/svg">
<path d="M177.023 0L196.853 20.4039L221.134 5.57251L235.267 30.2669L262.473 21.9399L270.021 49.3731L298.444 48.0737L298.931 76.522L326.784 82.3319L320.182 110.008L345.715 122.562L332.438 147.726L354.046 166.236L334.928 187.308L351.255 210.61L327.496 226.265L337.515 252.895L310.61 262.15L313.692 290.435L285.33 292.708L281.281 320.871L253.245 316.02L242.319 342.291L216.37 330.62L199.254 353.348L177.023 335.59L154.792 353.348L137.676 330.62L111.728 342.291L100.802 316.02L72.7658 320.871L68.7162 292.708L40.3547 290.435L43.4362 262.15L16.531 252.895L26.5499 226.265L2.79167 210.61L19.1184 187.308L-9.15527e-05 166.236L21.6087 147.726L8.33116 122.562L33.8642 110.008L27.262 82.3319L55.1149 76.522L55.6028 48.0737L84.0256 49.3731L91.573 21.9399L118.78 30.2669L132.912 5.57251L157.193 20.4039L177.023 0Z" fill="#FF8800"/>
</svg>
