<svg width="386" height="67" viewBox="0 0 386 67" fill="none" xmlns="http://www.w3.org/2000/svg">
<path d="M368.226 54.5277V49.6993L373.933 43.4077L375.652 41.7251L372.982 41.7983H368.226V36.2383H384.943V41.0667L379.346 47.2851L377.554 49.0409L380.553 48.9677H385.309V54.5277H368.226Z" fill="black"/>
<path d="M357.425 35.8725C359.668 35.8725 361.497 36.1895 362.912 36.8235C364.326 37.4332 365.363 38.2135 366.021 39.1646C366.704 40.1156 367.057 41.0911 367.082 42.0909L359.327 44.3588C359.327 43.3833 359.205 42.6762 358.961 42.2372C358.742 41.7739 358.352 41.5422 357.791 41.5422C357.303 41.5422 356.901 41.6641 356.584 41.908C356.291 42.1275 356.071 42.5298 355.925 43.1151C355.803 43.676 355.742 44.4685 355.742 45.4927C355.742 46.5413 355.828 47.3339 355.998 47.8704C356.193 48.4069 356.449 48.7726 356.766 48.9677C357.083 49.1384 357.437 49.2238 357.827 49.2238C358.193 49.2238 358.486 49.1384 358.705 48.9677C358.925 48.7726 359.095 48.4922 359.217 48.1264C359.364 47.7606 359.449 47.3217 359.473 46.8096L367.009 49.1506C366.984 50.1748 366.594 51.1259 365.838 52.0038C365.082 52.8573 364.021 53.5523 362.656 54.0888C361.314 54.6253 359.717 54.8935 357.864 54.8935C355.669 54.8935 353.779 54.5277 352.194 53.7962C350.609 53.0402 349.39 51.955 348.536 50.5406C347.707 49.1262 347.292 47.407 347.292 45.383C347.292 43.359 347.707 41.6398 348.536 40.2254C349.39 38.811 350.572 37.738 352.084 37.0064C353.621 36.2504 355.401 35.8725 357.425 35.8725Z" fill="black"/>
<path d="M341.441 46.9925C342.88 46.9925 343.989 47.3339 344.77 48.0167C345.55 48.6995 345.94 49.6627 345.94 50.9064C345.94 52.1501 345.55 53.1133 344.77 53.7962C343.989 54.479 342.88 54.8204 341.441 54.8204C340.027 54.8204 338.917 54.479 338.112 53.7962C337.332 53.1133 336.942 52.1501 336.942 50.9064C336.942 49.6627 337.332 48.6995 338.112 48.0167C338.917 47.3339 340.027 46.9925 341.441 46.9925Z" fill="black"/>
<path d="M325.819 54.8935C323.624 54.8935 321.747 54.5277 320.186 53.7962C318.625 53.0402 317.43 51.955 316.601 50.5406C315.772 49.1262 315.357 47.407 315.357 45.383C315.357 43.359 315.772 41.6398 316.601 40.2254C317.455 38.811 318.637 37.738 320.149 37.0064C321.686 36.2504 323.466 35.8725 325.49 35.8725C327.563 35.8725 329.318 36.2504 330.757 37.0064C332.22 37.738 333.33 38.7744 334.086 40.1156C334.842 41.4569 335.22 43.0176 335.22 44.7977C335.22 45.1879 335.195 45.5903 335.147 46.0048C335.122 46.4194 335.086 46.7486 335.037 46.9925H320.771V43.8833H331.379L327.392 45.4562C327.392 44.1393 327.27 43.1395 327.026 42.4567C326.807 41.7739 326.307 41.4325 325.526 41.4325C325.014 41.4325 324.588 41.5544 324.246 41.7983C323.929 42.0421 323.697 42.4689 323.551 43.0785C323.405 43.6638 323.332 44.4807 323.332 45.5293C323.332 46.5779 323.429 47.3826 323.624 47.9435C323.819 48.48 324.1 48.8458 324.466 49.0409C324.856 49.2116 325.343 49.2969 325.929 49.2969C326.563 49.2969 327.05 49.1628 327.392 48.8946C327.758 48.6019 328.002 48.2118 328.123 47.7241L334.891 49.553C334.622 50.7479 334.025 51.7477 333.098 52.5525C332.172 53.3328 331.062 53.9181 329.77 54.3083C328.501 54.6984 327.185 54.8935 325.819 54.8935Z" fill="#FF8800"/>
<path d="M304.6 54.8935C302.406 54.8935 300.528 54.5277 298.967 53.7962C297.406 53.0402 296.211 51.955 295.382 50.5406C294.553 49.1262 294.139 47.407 294.139 45.383C294.139 43.359 294.553 41.6398 295.382 40.2254C296.236 38.811 297.419 37.738 298.931 37.0064C300.467 36.2504 302.247 35.8725 304.271 35.8725C306.344 35.8725 308.1 36.2504 309.538 37.0064C311.002 37.738 312.111 38.7744 312.867 40.1156C313.623 41.4569 314.001 43.0176 314.001 44.7977C314.001 45.1879 313.977 45.5903 313.928 46.0048C313.903 46.4194 313.867 46.7486 313.818 46.9925H299.552V43.8833H310.16L306.173 45.4562C306.173 44.1393 306.051 43.1395 305.807 42.4567C305.588 41.7739 305.088 41.4325 304.308 41.4325C303.796 41.4325 303.369 41.5544 303.027 41.7983C302.71 42.0421 302.479 42.4689 302.332 43.0785C302.186 43.6638 302.113 44.4807 302.113 45.5293C302.113 46.5779 302.21 47.3826 302.406 47.9435C302.601 48.48 302.881 48.8458 303.247 49.0409C303.637 49.2116 304.125 49.2969 304.71 49.2969C305.344 49.2969 305.832 49.1628 306.173 48.8946C306.539 48.6019 306.783 48.2118 306.905 47.7241L313.672 49.553C313.404 50.7479 312.806 51.7477 311.879 52.5525C310.953 53.3328 309.843 53.9181 308.551 54.3083C307.283 54.6984 305.966 54.8935 304.6 54.8935Z" fill="#FF8800"/>
<path d="M283.382 54.8935C281.187 54.8935 279.309 54.5277 277.749 53.7962C276.188 53.0402 274.993 51.955 274.164 50.5406C273.335 49.1262 272.92 47.407 272.92 45.383C272.92 43.359 273.335 41.6398 274.164 40.2254C275.017 38.811 276.2 37.738 277.712 37.0064C279.248 36.2504 281.029 35.8725 283.053 35.8725C285.125 35.8725 286.881 36.2504 288.32 37.0064C289.783 37.738 290.893 38.7744 291.649 40.1156C292.405 41.4569 292.783 43.0176 292.783 44.7977C292.783 45.1879 292.758 45.5903 292.709 46.0048C292.685 46.4194 292.648 46.7486 292.6 46.9925H278.334V43.8833H288.942L284.955 45.4562C284.955 44.1393 284.833 43.1395 284.589 42.4567C284.369 41.7739 283.869 41.4325 283.089 41.4325C282.577 41.4325 282.15 41.5544 281.809 41.7983C281.492 42.0421 281.26 42.4689 281.114 43.0785C280.968 43.6638 280.894 44.4807 280.894 45.5293C280.894 46.5779 280.992 47.3826 281.187 47.9435C281.382 48.48 281.663 48.8458 282.028 49.0409C282.418 49.2116 282.906 49.2969 283.491 49.2969C284.126 49.2969 284.613 49.1628 284.955 48.8946C285.32 48.6019 285.564 48.2118 285.686 47.7241L292.453 49.553C292.185 50.7479 291.588 51.7477 290.661 52.5525C289.734 53.3328 288.625 53.9181 287.332 54.3083C286.064 54.6984 284.747 54.8935 283.382 54.8935Z" fill="#FF8800"/>
<path d="M239.501 54.5277V36.2383H247.073L247.256 40.2254C247.792 38.8354 248.597 37.7624 249.67 37.0064C250.743 36.2504 252.06 35.8725 253.62 35.8725C255.01 35.8725 256.157 36.1895 257.059 36.8235C257.986 37.4576 258.644 38.3598 259.034 39.5304C259.424 38.75 259.9 38.0916 260.461 37.5551C261.046 36.9942 261.717 36.5797 262.473 36.3114C263.253 36.0188 264.119 35.8725 265.07 35.8725C266.289 35.8725 267.325 36.1163 268.179 36.604C269.032 37.0674 269.679 37.7624 270.118 38.689C270.581 39.5913 270.813 40.7009 270.813 42.0177V54.5277H262.399V44.2125C262.399 43.3833 262.29 42.8225 262.07 42.5298C261.875 42.2372 261.558 42.0909 261.119 42.0909C260.729 42.0909 260.4 42.1884 260.132 42.3835C259.863 42.5786 259.668 42.8956 259.546 43.3346C259.424 43.7491 259.363 44.2856 259.363 44.944V54.5277H250.95V44.2125C250.95 43.3833 250.84 42.8225 250.621 42.5298C250.426 42.2372 250.109 42.0909 249.67 42.0909C249.28 42.0909 248.951 42.1884 248.682 42.3835C248.414 42.5786 248.219 42.8956 248.097 43.3346C247.975 43.7491 247.914 44.2856 247.914 44.944V54.5277H239.501Z" fill="black"/>
<path d="M227.909 43.1151C227.909 42.5542 227.775 42.1153 227.507 41.7983C227.263 41.4812 226.873 41.3227 226.337 41.3227C225.824 41.3227 225.398 41.4691 225.056 41.7617C224.715 42.0543 224.52 42.6396 224.471 43.5175L217.375 42.4933C217.545 40.4692 218.423 38.8598 220.008 37.6648C221.594 36.4699 223.898 35.8725 226.922 35.8725C229.043 35.8725 230.787 36.1651 232.153 36.7504C233.543 37.3356 234.567 38.1526 235.225 39.2012C235.908 40.2498 236.249 41.4691 236.249 42.8591V48.5288C236.249 49.5286 236.725 50.0285 237.676 50.0285C237.944 50.0285 238.152 49.992 238.298 49.9188L237.932 54.2351C237.03 54.6741 235.945 54.8935 234.677 54.8935C233.53 54.8935 232.506 54.735 231.604 54.418C230.726 54.0766 230.031 53.5767 229.519 52.9183C229.031 52.2355 228.787 51.3698 228.787 50.3212V49.9554H229.592C229.568 50.882 229.263 51.7234 228.678 52.4793C228.117 53.2109 227.361 53.7962 226.41 54.2351C225.459 54.6741 224.374 54.8935 223.154 54.8935C221.862 54.8935 220.764 54.6984 219.862 54.3083C218.984 53.9181 218.314 53.3572 217.85 52.6256C217.387 51.8941 217.155 51.0284 217.155 50.0285C217.155 48.6873 217.582 47.6021 218.436 46.773C219.289 45.9195 220.521 45.3342 222.13 45.0172L228.495 43.7004L228.458 46.6633L226.483 47.1388C225.971 47.2607 225.605 47.468 225.386 47.7606C225.166 48.0289 225.056 48.3703 225.056 48.7848C225.056 49.175 225.178 49.492 225.422 49.7359C225.666 49.9798 226.007 50.1017 226.446 50.1017C226.641 50.1017 226.824 50.0651 226.995 49.992C227.19 49.9188 227.349 49.8091 227.471 49.6627C227.617 49.5164 227.727 49.3457 227.8 49.1506C227.873 48.9312 227.909 48.6873 227.909 48.4191V43.1151ZM225.422 27.8251H232.921L229.153 34.2996H223.227L225.422 27.8251Z" fill="black"/>
<path d="M201.538 54.8935C200.05 54.8935 198.782 54.5277 197.733 53.7962C196.685 53.0402 195.892 51.9672 195.356 50.5772C194.819 49.1628 194.551 47.468 194.551 45.4927C194.551 43.4443 194.819 41.7129 195.356 40.2985C195.917 38.8598 196.721 37.7624 197.77 37.0064C198.819 36.2505 200.087 35.8725 201.574 35.8725C203.354 35.8725 204.72 36.4577 205.671 37.6283C206.622 38.7744 207.22 40.2254 207.463 41.9812L206.732 43.0785V28.9225H215.145V54.5277H207.573L207.061 47.1388L208.012 48.1996C207.866 49.492 207.512 50.6504 206.951 51.6746C206.415 52.6744 205.683 53.467 204.757 54.0522C203.854 54.6131 202.781 54.8935 201.538 54.8935ZM204.939 49.0043C205.33 49.0043 205.647 48.8824 205.891 48.6385C206.159 48.3703 206.366 47.9679 206.512 47.4314C206.659 46.8949 206.732 46.2121 206.732 45.383C206.732 44.6027 206.671 43.9442 206.549 43.4077C206.427 42.8712 206.232 42.4689 205.964 42.2006C205.695 41.9324 205.354 41.7983 204.939 41.7983C204.354 41.7983 203.891 42.0421 203.549 42.5298C203.208 42.9932 203.037 43.9442 203.037 45.383C203.037 46.8218 203.208 47.785 203.549 48.2727C203.891 48.7605 204.354 49.0043 204.939 49.0043Z" fill="black"/>
<path d="M183.686 43.1151C183.686 42.5542 183.552 42.1153 183.284 41.7983C183.04 41.4812 182.65 41.3227 182.113 41.3227C181.601 41.3227 181.174 41.4691 180.833 41.7617C180.492 42.0543 180.296 42.6396 180.248 43.5175L173.151 42.4933C173.322 40.4692 174.2 38.8598 175.785 37.6648C177.37 36.4699 179.675 35.8725 182.698 35.8725C184.82 35.8725 186.564 36.1651 187.929 36.7504C189.319 37.3356 190.343 38.1526 191.002 39.2012C191.685 40.2498 192.026 41.4691 192.026 42.8591V48.5288C192.026 49.5286 192.502 50.0285 193.453 50.0285C193.721 50.0285 193.928 49.992 194.075 49.9188L193.709 54.2351C192.806 54.6741 191.721 54.8935 190.453 54.8935C189.307 54.8935 188.283 54.735 187.381 54.418C186.503 54.0766 185.808 53.5767 185.296 52.9183C184.808 52.2355 184.564 51.3698 184.564 50.3212V49.9554H185.369C185.344 50.882 185.04 51.7234 184.454 52.4793C183.893 53.2109 183.137 53.7962 182.186 54.2351C181.235 54.6741 180.15 54.8935 178.931 54.8935C177.638 54.8935 176.541 54.6984 175.639 54.3083C174.761 53.9181 174.09 53.3572 173.627 52.6256C173.164 51.8941 172.932 51.0284 172.932 50.0285C172.932 48.6873 173.359 47.6021 174.212 46.773C175.066 45.9195 176.297 45.3342 177.907 45.0172L184.271 43.7004L184.235 46.6633L182.26 47.1388C181.747 47.2607 181.382 47.468 181.162 47.7606C180.943 48.0289 180.833 48.3703 180.833 48.7848C180.833 49.175 180.955 49.492 181.199 49.7359C181.443 49.9798 181.784 50.1017 182.223 50.1017C182.418 50.1017 182.601 50.0651 182.772 49.992C182.967 49.9188 183.125 49.8091 183.247 49.6627C183.393 49.5164 183.503 49.3457 183.576 49.1506C183.65 48.9312 183.686 48.6873 183.686 48.4191V43.1151ZM181.199 27.8251H188.697L184.93 34.2996H179.004L181.199 27.8251Z" fill="black"/>
<path d="M169.255 28.9225V47.2485C169.255 47.9801 169.365 48.5166 169.584 48.858C169.804 49.1994 170.194 49.3701 170.755 49.3701C171.023 49.3701 171.255 49.3579 171.45 49.3335C171.669 49.2848 171.876 49.236 172.072 49.1872L171.706 53.723C171.242 54.0644 170.572 54.3448 169.694 54.5643C168.84 54.7838 167.999 54.8935 167.17 54.8935C164.902 54.8935 163.28 54.4058 162.305 53.4304C161.33 52.4549 160.842 50.8211 160.842 48.5288V28.9225H169.255Z" fill="black"/>
<path d="M159.554 36.2383L150.19 46.5535L148.727 46.6633L144.008 52.4062L143.898 44.2491L150.519 36.2383H159.554ZM145.179 28.9225V54.5277H136.765V28.9225H145.179ZM151.616 41.1398L159.956 54.5277H150.812L146.495 46.1146L151.616 41.1398Z" fill="black"/>
<path d="M124.414 35.8725C126.463 35.8725 128.243 36.2504 129.755 37.0064C131.291 37.738 132.486 38.811 133.34 40.2254C134.193 41.6398 134.62 43.359 134.62 45.383C134.62 47.3826 134.193 49.1019 133.34 50.5406C132.486 51.955 131.291 53.0402 129.755 53.7962C128.243 54.5277 126.463 54.8935 124.414 54.8935C122.39 54.8935 120.61 54.5277 119.074 53.7962C117.537 53.0402 116.343 51.955 115.489 50.5406C114.635 49.1019 114.209 47.3826 114.209 45.383C114.209 43.359 114.635 41.6398 115.489 40.2254C116.343 38.811 117.537 37.738 119.074 37.0064C120.61 36.2504 122.39 35.8725 124.414 35.8725ZM124.414 41.5422C124.048 41.5422 123.731 41.6519 123.463 41.8714C123.195 42.0665 122.988 42.4445 122.841 43.0054C122.719 43.5662 122.658 44.3588 122.658 45.383C122.658 46.4072 122.719 47.1998 122.841 47.7606C122.988 48.2971 123.195 48.6751 123.463 48.8946C123.731 49.1141 124.048 49.2238 124.414 49.2238C124.804 49.2238 125.121 49.1141 125.365 48.8946C125.634 48.6751 125.829 48.2971 125.951 47.7606C126.097 47.1998 126.17 46.4072 126.17 45.383C126.17 44.3588 126.097 43.5662 125.951 43.0054C125.829 42.4445 125.634 42.0665 125.365 41.8714C125.121 41.6519 124.804 41.5422 124.414 41.5422Z" fill="black"/>
<path d="M91.9705 62.2093V36.2383H99.6155L100.018 44.2856L99.0668 43.3346C99.1399 41.8958 99.4448 40.6155 99.9813 39.4938C100.518 38.372 101.262 37.4941 102.213 36.8601C103.164 36.2017 104.285 35.8725 105.578 35.8725C107.09 35.8725 108.358 36.2504 109.382 37.0064C110.431 37.738 111.223 38.7988 111.76 40.1888C112.296 41.5788 112.564 43.2736 112.564 45.2733C112.564 47.2973 112.284 49.0287 111.723 50.4675C111.187 51.9062 110.394 53.0036 109.345 53.7596C108.297 54.5155 107.029 54.8935 105.541 54.8935C103.761 54.8935 102.395 54.3205 101.444 53.1743C100.493 52.0038 99.8959 50.5406 99.652 48.7848L100.384 47.6875V62.2093H91.9705ZM102.176 48.9677C102.761 48.9677 103.225 48.7361 103.566 48.2727C103.907 47.785 104.078 46.8218 104.078 45.383C104.078 43.9442 103.907 42.981 103.566 42.4933C103.225 42.0055 102.761 41.7617 102.176 41.7617C101.81 41.7617 101.493 41.8958 101.225 42.164C100.957 42.4079 100.749 42.7981 100.603 43.3346C100.457 43.8467 100.384 44.5295 100.384 45.383C100.384 46.1633 100.445 46.8218 100.567 47.3583C100.688 47.8948 100.884 48.2971 101.152 48.5654C101.42 48.8336 101.761 48.9677 102.176 48.9677Z" fill="black"/>
<path d="M10.1928 54.5936H64.2144L74.4072 66.4553H0L10.1928 54.5936Z" fill="#FF8800"/>
<path d="M18.2483 28.7226L70.4292 42.7044L77.7227 54.8662L5.85096 35.6082L18.2483 28.7226Z" fill="#FF8800"/>
<path d="M29.4158 5.09638L76.1999 32.1072L81.0982 44.0086L16.6598 6.80498L29.4158 5.09638Z" fill="#FF8800"/>
</svg>
