<svg width="385" height="67" viewBox="0 0 385 67" fill="none" xmlns="http://www.w3.org/2000/svg">
<path d="M367.865 54.5075V49.6839L373.565 43.3985L375.283 41.7175L372.615 41.7906H367.865V36.236H384.565V41.0597L378.974 47.272L377.183 49.0261L380.18 48.953H384.93V54.5075H367.865Z" fill="white"/>
<path d="M357.074 35.8706C359.315 35.8706 361.143 36.1873 362.556 36.8207C363.969 37.4298 365.004 38.2094 365.662 39.1595C366.344 40.1096 366.697 41.0841 366.721 42.0829L358.974 44.3486C358.974 43.3741 358.853 42.6676 358.609 42.2291C358.39 41.7662 358 41.5348 357.44 41.5348C356.952 41.5348 356.55 41.6566 356.234 41.9002C355.941 42.1195 355.722 42.5214 355.576 43.1061C355.454 43.6665 355.393 44.4582 355.393 45.4814C355.393 46.529 355.478 47.3208 355.649 47.8567C355.844 48.3927 356.1 48.7581 356.416 48.953C356.733 49.1236 357.086 49.2088 357.476 49.2088C357.841 49.2088 358.134 49.1236 358.353 48.953C358.572 48.7581 358.743 48.478 358.865 48.1125C359.011 47.7471 359.096 47.3086 359.12 46.797L366.648 49.1357C366.624 50.1589 366.234 51.1091 365.479 51.9861C364.724 52.8388 363.664 53.5331 362.3 54.069C360.96 54.605 359.364 54.873 357.513 54.873C355.32 54.873 353.432 54.5076 351.848 53.7767C350.265 53.0215 349.047 51.9374 348.194 50.5244C347.366 49.1114 346.952 47.3938 346.952 45.3718C346.952 43.3498 347.366 41.6322 348.194 40.2192C349.047 38.8062 350.228 37.7343 351.739 37.0034C353.274 36.2482 355.052 35.8706 357.074 35.8706Z" fill="white"/>
<path d="M341.106 46.9797C342.543 46.9797 343.652 47.3207 344.431 48.0029C345.211 48.685 345.601 49.6473 345.601 50.8898C345.601 52.1322 345.211 53.0945 344.431 53.7767C343.652 54.4588 342.543 54.7999 341.106 54.7999C339.693 54.7999 338.584 54.4588 337.78 53.7767C337.001 53.0945 336.611 52.1322 336.611 50.8898C336.611 49.6473 337.001 48.685 337.78 48.0029C338.584 47.3207 339.693 46.9797 341.106 46.9797Z" fill="white"/>
<path d="M325.499 54.873C323.307 54.873 321.431 54.5076 319.872 53.7767C318.312 53.0215 317.119 51.9374 316.29 50.5244C315.462 49.1114 315.048 47.3938 315.048 45.3718C315.048 43.3498 315.462 41.6322 316.29 40.2192C317.143 38.8062 318.325 37.7343 319.835 37.0034C321.37 36.2482 323.148 35.8706 325.17 35.8706C327.241 35.8706 328.995 36.2482 330.432 37.0034C331.894 37.7343 333.003 38.7697 333.758 40.1096C334.513 41.4495 334.891 43.0087 334.891 44.7871C334.891 45.1769 334.866 45.5789 334.818 45.993C334.793 46.4072 334.757 46.7361 334.708 46.9797H320.456V43.8735H331.054L327.071 45.4449C327.071 44.1293 326.949 43.1305 326.705 42.4484C326.486 41.7662 325.986 41.4251 325.207 41.4251C324.695 41.4251 324.269 41.547 323.928 41.7906C323.611 42.0342 323.38 42.4605 323.233 43.0696C323.087 43.6543 323.014 44.4704 323.014 45.518C323.014 46.5655 323.112 47.3695 323.307 47.9298C323.501 48.4658 323.782 48.8312 324.147 49.0261C324.537 49.1966 325.024 49.2819 325.609 49.2819C326.242 49.2819 326.729 49.1479 327.071 48.8799C327.436 48.5876 327.68 48.1978 327.801 47.7106L334.562 49.5377C334.294 50.7314 333.697 51.7303 332.771 52.5342C331.845 53.3138 330.737 53.8985 329.446 54.2883C328.179 54.6781 326.863 54.873 325.499 54.873Z" fill="#FF8800"/>
<path d="M304.301 54.873C302.109 54.873 300.233 54.5076 298.674 53.7767C297.114 53.0215 295.921 51.9374 295.092 50.5244C294.264 49.1114 293.85 47.3938 293.85 45.3718C293.85 43.3498 294.264 41.6322 295.092 40.2192C295.945 38.8062 297.127 37.7343 298.637 37.0034C300.172 36.2482 301.95 35.8706 303.972 35.8706C306.043 35.8706 307.797 36.2482 309.234 37.0034C310.696 37.7343 311.805 38.7697 312.56 40.1096C313.315 41.4495 313.693 43.0087 313.693 44.7871C313.693 45.1769 313.668 45.5789 313.62 45.993C313.595 46.4072 313.559 46.7361 313.51 46.9797H299.258V43.8735H309.856L305.873 45.4449C305.873 44.1293 305.751 43.1305 305.507 42.4484C305.288 41.7662 304.788 41.4251 304.009 41.4251C303.497 41.4251 303.071 41.547 302.73 41.7906C302.413 42.0342 302.182 42.4605 302.035 43.0696C301.889 43.6543 301.816 44.4704 301.816 45.518C301.816 46.5655 301.914 47.3695 302.109 47.9298C302.303 48.4658 302.584 48.8312 302.949 49.0261C303.339 49.1966 303.826 49.2819 304.411 49.2819C305.044 49.2819 305.531 49.1479 305.873 48.8799C306.238 48.5876 306.482 48.1978 306.603 47.7106L313.364 49.5377C313.096 50.7314 312.499 51.7303 311.573 52.5342C310.647 53.3138 309.539 53.8985 308.248 54.2883C306.981 54.6781 305.665 54.873 304.301 54.873Z" fill="#FF8800"/>
<path d="M283.103 54.873C280.911 54.873 279.035 54.5076 277.476 53.7767C275.917 53.0215 274.723 51.9374 273.895 50.5244C273.066 49.1114 272.652 47.3938 272.652 45.3718C272.652 43.3498 273.066 41.6322 273.895 40.2192C274.747 38.8062 275.929 37.7343 277.439 37.0034C278.974 36.2482 280.752 35.8706 282.775 35.8706C284.845 35.8706 286.599 36.2482 288.037 37.0034C289.498 37.7343 290.607 38.7697 291.362 40.1096C292.117 41.4495 292.495 43.0087 292.495 44.7871C292.495 45.1769 292.471 45.5789 292.422 45.993C292.398 46.4072 292.361 46.7361 292.312 46.9797H278.06V43.8735H288.658L284.675 45.4449C284.675 44.1293 284.553 43.1305 284.309 42.4484C284.09 41.7662 283.591 41.4251 282.811 41.4251C282.299 41.4251 281.873 41.547 281.532 41.7906C281.215 42.0342 280.984 42.4605 280.838 43.0696C280.692 43.6543 280.618 44.4704 280.618 45.518C280.618 46.5655 280.716 47.3695 280.911 47.9298C281.106 48.4658 281.386 48.8312 281.751 49.0261C282.141 49.1966 282.628 49.2819 283.213 49.2819C283.846 49.2819 284.334 49.1479 284.675 48.8799C285.04 48.5876 285.284 48.1978 285.406 47.7106L292.166 49.5377C291.898 50.7314 291.301 51.7303 290.375 52.5342C289.45 53.3138 288.341 53.8985 287.05 54.2883C285.783 54.6781 284.468 54.873 283.103 54.873Z" fill="#FF8800"/>
<path d="M239.266 54.5076V36.236H246.83L247.013 40.2192C247.549 38.8306 248.353 37.7587 249.425 37.0034C250.497 36.2482 251.812 35.8706 253.371 35.8706C254.76 35.8706 255.905 36.1873 256.807 36.8207C257.732 37.4541 258.39 38.3555 258.78 39.5249C259.17 38.7453 259.645 38.0876 260.205 37.5516C260.79 36.9913 261.46 36.5771 262.215 36.3091C262.994 36.0168 263.859 35.8706 264.809 35.8706C266.028 35.8706 267.063 36.1142 267.916 36.6015C268.768 37.0643 269.414 37.7587 269.852 38.6844C270.315 39.5858 270.547 40.6943 270.547 42.0098V54.5076H262.142V44.2024C262.142 43.3741 262.032 42.8138 261.813 42.5214C261.618 42.2291 261.301 42.0829 260.863 42.0829C260.473 42.0829 260.144 42.1804 259.876 42.3753C259.608 42.5702 259.413 42.8869 259.291 43.3254C259.17 43.7395 259.109 44.2755 259.109 44.9333V54.5076H250.704V44.2024C250.704 43.3741 250.594 42.8138 250.375 42.5214C250.18 42.2291 249.863 42.0829 249.425 42.0829C249.035 42.0829 248.706 42.1804 248.438 42.3753C248.17 42.5702 247.975 42.8869 247.853 43.3254C247.732 43.7395 247.671 44.2755 247.671 44.9333V54.5076H239.266Z" fill="white"/>
<path d="M227.686 43.1061C227.686 42.5458 227.552 42.1073 227.284 41.7906C227.04 41.4739 226.65 41.3155 226.114 41.3155C225.603 41.3155 225.176 41.4617 224.835 41.754C224.494 42.0464 224.299 42.631 224.251 43.5081L217.161 42.4849C217.332 40.4628 218.209 38.8549 219.792 37.6612C221.376 36.4675 223.678 35.8706 226.699 35.8706C228.818 35.8706 230.56 36.1629 231.925 36.7476C233.313 37.3323 234.336 38.1484 234.994 39.196C235.676 40.2436 236.017 41.4617 236.017 42.8503V48.5145C236.017 49.5133 236.492 50.0127 237.443 50.0127C237.711 50.0127 237.918 49.9762 238.064 49.9031L237.698 54.2152C236.797 54.6537 235.713 54.873 234.446 54.873C233.301 54.873 232.278 54.7146 231.376 54.3979C230.499 54.0568 229.805 53.5574 229.293 52.8996C228.806 52.2175 228.563 51.3527 228.563 50.3051V49.9397H229.367C229.342 50.8654 229.038 51.7059 228.453 52.4611C227.893 53.192 227.137 53.7767 226.187 54.2152C225.237 54.6537 224.153 54.873 222.935 54.873C221.644 54.873 220.547 54.6781 219.646 54.2883C218.769 53.8985 218.099 53.3382 217.636 52.6073C217.173 51.8764 216.942 51.0116 216.942 50.0127C216.942 48.6728 217.368 47.5887 218.221 46.7604C219.074 45.9077 220.304 45.3231 221.912 45.0063L228.27 43.6908L228.234 46.6508L226.26 47.1258C225.749 47.2477 225.383 47.4547 225.164 47.7471C224.945 48.0151 224.835 48.3561 224.835 48.7703C224.835 49.1601 224.957 49.4768 225.201 49.7204C225.444 49.964 225.785 50.0858 226.224 50.0858C226.419 50.0858 226.601 50.0493 226.772 49.9762C226.967 49.9031 227.125 49.7935 227.247 49.6473C227.393 49.5011 227.503 49.3306 227.576 49.1357C227.649 48.9165 227.686 48.6728 227.686 48.4049V43.1061ZM225.201 27.8311H232.692L228.928 34.2992H223.008L225.201 27.8311Z" fill="white"/>
<path d="M201.34 54.873C199.854 54.873 198.587 54.5076 197.539 53.7767C196.492 53.0215 195.7 51.9495 195.164 50.5609C194.628 49.1479 194.36 47.4548 194.36 45.4814C194.36 43.435 194.628 41.7053 195.164 40.2923C195.724 38.855 196.528 37.7587 197.576 37.0034C198.623 36.2482 199.89 35.8706 201.376 35.8706C203.155 35.8706 204.519 36.4553 205.469 37.6247C206.419 38.7697 207.016 40.2192 207.26 41.9733L206.529 43.0696V28.9274H214.934V54.5076H207.369L206.858 47.1259L207.808 48.1856C207.662 49.4768 207.309 50.634 206.748 51.6572C206.212 52.656 205.481 53.4478 204.556 54.0325C203.654 54.5928 202.582 54.873 201.34 54.873ZM204.738 48.9896C205.128 48.9896 205.445 48.8678 205.688 48.6241C205.956 48.3562 206.164 47.9542 206.31 47.4182C206.456 46.8822 206.529 46.2001 206.529 45.3718C206.529 44.5922 206.468 43.9344 206.346 43.3985C206.224 42.8625 206.03 42.4605 205.762 42.1926C205.494 41.9246 205.152 41.7906 204.738 41.7906C204.154 41.7906 203.691 42.0342 203.35 42.5214C203.009 42.9843 202.838 43.9344 202.838 45.3718C202.838 46.8092 203.009 47.7715 203.35 48.2587C203.691 48.7459 204.154 48.9896 204.738 48.9896Z" fill="white"/>
<path d="M183.506 43.1061C183.506 42.5458 183.372 42.1073 183.104 41.7906C182.86 41.4739 182.47 41.3155 181.934 41.3155C181.423 41.3155 180.996 41.4617 180.655 41.754C180.314 42.0464 180.119 42.631 180.071 43.5081L172.981 42.4849C173.152 40.4628 174.029 38.8549 175.612 37.6612C177.196 36.4675 179.498 35.8706 182.519 35.8706C184.638 35.8706 186.38 36.1629 187.745 36.7476C189.133 37.3323 190.156 38.1484 190.814 39.196C191.496 40.2436 191.837 41.4617 191.837 42.8503V48.5145C191.837 49.5133 192.312 50.0127 193.263 50.0127C193.531 50.0127 193.738 49.9762 193.884 49.9031L193.518 54.2152C192.617 54.6537 191.533 54.873 190.266 54.873C189.121 54.873 188.098 54.7146 187.196 54.3979C186.319 54.0568 185.625 53.5574 185.114 52.8996C184.626 52.2175 184.383 51.3527 184.383 50.3051V49.9397H185.187C185.162 50.8654 184.858 51.7059 184.273 52.4611C183.713 53.192 182.957 53.7767 182.007 54.2152C181.057 54.6537 179.973 54.873 178.755 54.873C177.464 54.873 176.368 54.6781 175.466 54.2883C174.589 53.8985 173.919 53.3382 173.456 52.6073C172.993 51.8764 172.762 51.0116 172.762 50.0127C172.762 48.6728 173.188 47.5887 174.041 46.7604C174.894 45.9077 176.124 45.3231 177.732 45.0063L184.09 43.6908L184.054 46.6508L182.08 47.1258C181.569 47.2477 181.203 47.4547 180.984 47.7471C180.765 48.0151 180.655 48.3561 180.655 48.7703C180.655 49.1601 180.777 49.4768 181.021 49.7204C181.264 49.964 181.605 50.0858 182.044 50.0858C182.239 50.0858 182.422 50.0493 182.592 49.9762C182.787 49.9031 182.945 49.7935 183.067 49.6473C183.213 49.5011 183.323 49.3306 183.396 49.1357C183.469 48.9165 183.506 48.6728 183.506 48.4049V43.1061ZM181.021 27.8311H188.512L184.748 34.2992H178.828L181.021 27.8311Z" fill="white"/>
<path d="M169.089 28.9274V47.2355C169.089 47.9664 169.199 48.5023 169.418 48.8434C169.637 49.1845 170.027 49.355 170.587 49.355C170.855 49.355 171.087 49.3428 171.282 49.3185C171.501 49.2697 171.708 49.221 171.903 49.1723L171.537 53.7036C171.074 54.0447 170.405 54.3248 169.527 54.5441C168.675 54.7634 167.834 54.873 167.006 54.873C164.74 54.873 163.12 54.3858 162.146 53.4113C161.171 52.4368 160.684 50.8045 160.684 48.5145V28.9274H169.089Z" fill="white"/>
<path d="M159.397 36.236L150.042 46.5412L148.581 46.6508L143.867 52.3881L143.757 44.239L150.371 36.236H159.397ZM145.036 28.9274V54.5076H136.631V28.9274H145.036ZM151.468 41.1328L159.799 54.5076H150.664L146.352 46.1027L151.468 41.1328Z" fill="white"/>
<path d="M124.292 35.8706C126.339 35.8706 128.117 36.2482 129.627 37.0034C131.162 37.7343 132.356 38.8062 133.209 40.2192C134.061 41.6322 134.488 43.3498 134.488 45.3718C134.488 47.3695 134.061 49.087 133.209 50.5244C132.356 51.9374 131.162 53.0215 129.627 53.7767C128.117 54.5076 126.339 54.873 124.292 54.873C122.27 54.873 120.492 54.5076 118.957 53.7767C117.422 53.0215 116.228 51.9374 115.376 50.5244C114.523 49.087 114.097 47.3695 114.097 45.3718C114.097 43.3498 114.523 41.6322 115.376 40.2192C116.228 38.8062 117.422 37.7343 118.957 37.0034C120.492 36.2482 122.27 35.8706 124.292 35.8706ZM124.292 41.5348C123.927 41.5348 123.61 41.6444 123.342 41.8637C123.074 42.0586 122.867 42.4362 122.721 42.9965C122.599 43.5568 122.538 44.3486 122.538 45.3718C122.538 46.395 122.599 47.1868 122.721 47.7471C122.867 48.2831 123.074 48.6607 123.342 48.8799C123.61 49.0992 123.927 49.2088 124.292 49.2088C124.682 49.2088 124.999 49.0992 125.242 48.8799C125.51 48.6607 125.705 48.2831 125.827 47.7471C125.973 47.1868 126.046 46.395 126.046 45.3718C126.046 44.3486 125.973 43.5568 125.827 42.9965C125.705 42.4362 125.51 42.0586 125.242 41.8637C124.999 41.6444 124.682 41.5348 124.292 41.5348Z" fill="white"/>
<path d="M91.8804 62.1816V36.236H99.5179L99.9198 44.2755L98.9697 43.3254C99.0428 41.888 99.3473 40.609 99.8833 39.4884C100.419 38.3677 101.162 37.4907 102.112 36.8573C103.063 36.1995 104.183 35.8706 105.474 35.8706C106.985 35.8706 108.252 36.2482 109.275 37.0034C110.322 37.7343 111.114 38.794 111.65 40.1827C112.186 41.5713 112.454 43.2645 112.454 45.2622C112.454 47.2842 112.174 49.0139 111.614 50.4513C111.078 51.8886 110.286 52.9849 109.238 53.7402C108.191 54.4954 106.924 54.873 105.438 54.873C103.659 54.873 102.295 54.3005 101.345 53.1555C100.395 51.9861 99.798 50.5244 99.5544 48.7703L100.285 47.674V62.1816H91.8804ZM102.076 48.953C102.661 48.953 103.123 48.7216 103.465 48.2587C103.806 47.7715 103.976 46.8092 103.976 45.3718C103.976 43.9344 103.806 42.9721 103.465 42.4849C103.123 41.9977 102.661 41.754 102.076 41.754C101.71 41.754 101.394 41.888 101.126 42.156C100.858 42.3996 100.651 42.7894 100.505 43.3254C100.358 43.837 100.285 44.5191 100.285 45.3718C100.285 46.1514 100.346 46.8092 100.468 47.3451C100.59 47.8811 100.785 48.2831 101.053 48.551C101.321 48.819 101.662 48.953 102.076 48.953Z" fill="white"/>
<path d="M10.1828 54.54H64.1514L74.3341 66.39H0L10.1828 54.54Z" fill="#FF8800"/>
<path d="M18.2303 28.6943L70.36 42.6624L77.6464 54.8123L5.84516 35.5732L18.2303 28.6943Z" fill="#FF8800"/>
<path d="M29.3869 5.09138L76.1251 32.0757L81.0186 43.9653L16.6434 6.7983L29.3869 5.09138Z" fill="#FF8800"/>
</svg>
